<svg width="10" height="10" viewBox="0 0 10 10" fill="none" xmlns="http://www.w3.org/2000/svg">
<path d="M8.80602 1.29567C8.58611 1.04342 8.325 0.843314 8.03762 0.706791C7.75024 0.570269 7.44222 0.5 7.13115 0.5C6.82007 0.5 6.51205 0.570269 6.22467 0.706791C5.93729 0.843314 5.67619 1.04342 5.45628 1.29567L4.99989 1.81893L4.54349 1.29567C4.09929 0.786378 3.49682 0.500264 2.86862 0.500264C2.24043 0.500264 1.63796 0.786378 1.19375 1.29567C0.749551 1.80495 0.5 2.49569 0.5 3.21593C0.5 3.93617 0.749551 4.62692 1.19375 5.1362L1.65014 5.65946L4.99989 9.5L8.34962 5.65946L8.80602 5.1362C9.02603 4.88407 9.20056 4.58471 9.31963 4.25523C9.43871 3.92574 9.5 3.57258 9.5 3.21593C9.5 2.85928 9.43871 2.50613 9.31963 2.17664C9.20056 1.84716 9.02603 1.5478 8.80602 1.29567V1.29567Z" stroke="white" stroke-linecap="round" stroke-linejoin="round"/>
</svg>
