<svg width="21" height="20" viewBox="0 0 21 20" fill="none" xmlns="http://www.w3.org/2000/svg">
<path d="M10.0258 2.375C11.4796 2.375 12.6576 3.55 12.6576 5C12.6576 6.45 11.4796 7.625 10.0258 7.625C8.57209 7.625 7.39405 6.45 7.39405 5C7.39405 3.55 8.57209 2.375 10.0258 2.375ZM10.0258 13.625C13.7479 13.625 17.6705 15.45 17.6705 16.25V17.625H2.38114V16.25C2.38114 15.45 6.30374 13.625 10.0258 13.625ZM10.0258 0C7.2562 0 5.01292 2.2375 5.01292 5C5.01292 7.7625 7.2562 10 10.0258 10C12.7955 10 15.0387 7.7625 15.0387 5C15.0387 2.2375 12.7955 0 10.0258 0ZM10.0258 11.25C6.67971 11.25 0 12.925 0 16.25V20H20.0517V16.25C20.0517 12.925 13.372 11.25 10.0258 11.25Z" fill="white"/>
</svg>
