<svg width="13" height="15" viewBox="0 0 13 15" fill="none" xmlns="http://www.w3.org/2000/svg">
<path d="M8.1835 4.44502L6.5 6.36378L4.8165 4.44502L3.9 5.4896L5.5835 7.40836L3.9 9.32713L4.8165 10.3717L6.5 8.45294L8.1835 10.3717L9.1 9.32713L7.4165 7.40836L9.1 5.4896L8.1835 4.44502ZM6.5 0C2.9055 0 0 3.31154 0 7.40836C0 11.5052 2.9055 14.8167 6.5 14.8167C10.0945 14.8167 13 11.5052 13 7.40836C13 3.31154 10.0945 0 6.5 0ZM6.5 13.3351C3.6335 13.3351 1.3 10.6755 1.3 7.40836C1.3 4.14128 3.6335 1.48167 6.5 1.48167C9.3665 1.48167 11.7 4.14128 11.7 7.40836C11.7 10.6755 9.3665 13.3351 6.5 13.3351Z" fill="white"/>
</svg>
