<svg width="20" height="21" viewBox="0 0 20 21" fill="none" xmlns="http://www.w3.org/2000/svg">
<path d="M9.92064 7.93651H11.9048V4.96032H14.881V2.97619H11.9048V0H9.92064V2.97619H6.94444V4.96032H9.92064V7.93651ZM5.95238 16.8651C4.86111 16.8651 3.97817 17.7579 3.97817 18.8492C3.97817 19.9405 4.86111 20.8333 5.95238 20.8333C7.04365 20.8333 7.93651 19.9405 7.93651 18.8492C7.93651 17.7579 7.04365 16.8651 5.95238 16.8651ZM15.873 16.8651C14.7817 16.8651 13.8988 17.7579 13.8988 18.8492C13.8988 19.9405 14.7817 20.8333 15.873 20.8333C16.9643 20.8333 17.8571 19.9405 17.8571 18.8492C17.8571 17.7579 16.9643 16.8651 15.873 16.8651ZM6.12103 13.6409L6.15079 13.5218L7.04365 11.9048H14.4345C15.1786 11.9048 15.8333 11.498 16.1706 10.8829L20 3.92857L18.2738 2.97619H18.2639L17.1726 4.96032L14.4345 9.92064H7.47024L7.34127 9.65278L5.11905 4.96032L4.17659 2.97619L3.24405 0.992064H0V2.97619H1.98413L5.55556 10.506L4.21627 12.9365C4.05754 13.2143 3.96825 13.5417 3.96825 13.8889C3.96825 14.9802 4.86111 15.873 5.95238 15.873H17.8571V13.8889H6.36905C6.24008 13.8889 6.12103 13.7798 6.12103 13.6409Z" fill="#6B0808"/>
</svg>
