<svg width="9" height="9" viewBox="0 0 9 9" fill="none" xmlns="http://www.w3.org/2000/svg">
<path d="M5.6655 2.7L4.5 3.8655L3.3345 2.7L2.7 3.3345L3.8655 4.5L2.7 5.6655L3.3345 6.3L4.5 5.1345L5.6655 6.3L6.3 5.6655L5.1345 4.5L6.3 3.3345L5.6655 2.7ZM4.5 0C2.0115 0 0 2.0115 0 4.5C0 6.9885 2.0115 9 4.5 9C6.9885 9 9 6.9885 9 4.5C9 2.0115 6.9885 0 4.5 0ZM4.5 8.1C2.5155 8.1 0.9 6.4845 0.9 4.5C0.9 2.5155 2.5155 0.9 4.5 0.9C6.4845 0.9 8.1 2.5155 8.1 4.5C8.1 6.4845 6.4845 8.1 4.5 8.1Z" fill="white"/>
</svg>
