<svg width="21" height="20" viewBox="0 0 21 20" fill="none" xmlns="http://www.w3.org/2000/svg">
<path d="M14.3308 12.5786H13.4251L13.1041 12.2699C14.2276 10.9663 14.9041 9.27387 14.9041 7.43282C14.9041 3.32762 11.5678 0 7.45203 0C3.33621 0 0 3.32762 0 7.43282C0 11.538 3.33621 14.8656 7.45203 14.8656C9.29784 14.8656 10.9946 14.191 12.3016 13.0703L12.6111 13.3905V14.2939L18.3434 20L20.0517 18.2962L14.3308 12.5786ZM7.45203 12.5786C4.59733 12.5786 2.29293 10.2802 2.29293 7.43282C2.29293 4.58548 4.59733 2.28702 7.45203 2.28702C10.3067 2.28702 12.6111 4.58548 12.6111 7.43282C12.6111 10.2802 10.3067 12.5786 7.45203 12.5786Z" fill="white"/>
</svg>
