<svg width="21" height="21" viewBox="0 0 21 21" fill="none" xmlns="http://www.w3.org/2000/svg">
<path d="M10.0258 7.99999H12.031V4.99999H15.0387V2.99999H12.031V0H10.0258V2.99999H7.01807V4.99999H10.0258V7.99999ZM6.01549 17C4.91265 17 4.02035 17.9 4.02035 19C4.02035 20.1 4.91265 21 6.01549 21C7.11833 21 8.02066 20.1 8.02066 19C8.02066 17.9 7.11833 17 6.01549 17ZM16.0413 17C14.9385 17 14.0462 17.9 14.0462 19C14.0462 20.1 14.9385 21 16.0413 21C17.1442 21 18.0465 20.1 18.0465 19C18.0465 17.9 17.1442 17 16.0413 17ZM6.18593 13.75L6.21601 13.63L7.11833 12H14.5876C15.3395 12 16.0012 11.59 16.3421 10.97L20.2121 3.95999L18.4676 2.99999H18.4575L17.3547 4.99999L14.5876 9.99998H7.54944L7.41911 9.72998L5.17332 4.99999L4.22087 2.99999L3.27844 0.999998H0V2.99999H2.00516L5.61446 10.59L4.26097 13.04C4.10056 13.32 4.01033 13.65 4.01033 14C4.01033 15.1 4.91265 16 6.01549 16H18.0465V14H6.43658C6.30624 14 6.18593 13.89 6.18593 13.75Z" fill="white"/>
</svg>
