<svg width="35" height="36" viewBox="0 0 35 36" fill="none" xmlns="http://www.w3.org/2000/svg">
<path d="M3.0949 35.7434C2.56423 35.7434 2.03356 35.615 1.54744 35.3619C0.579273 34.8556 0 33.9495 0 32.9371V2.80453C0 1.79204 0.579273 0.885927 1.54744 0.379683C2.51562 -0.126561 3.67418 -0.126561 4.6383 0.379683L33.4526 15.446C34.4207 15.9522 35 16.8583 35 17.8708C35 18.8833 34.4207 19.7894 33.4526 20.2956L4.6383 35.3619C4.15624 35.6187 3.62557 35.7434 3.0949 35.7434ZM3.10301 1.83972C2.85591 1.83972 2.66145 1.92043 2.56423 1.97178C2.40219 2.05616 2.02951 2.30561 2.02951 2.80819V32.9407C2.02951 33.4433 2.40219 33.6927 2.56423 33.7771C2.72627 33.8615 3.15162 34.0302 3.62963 33.7771L32.4439 18.7109C32.9259 18.4577 32.9786 18.0432 32.9786 17.8745C32.9786 17.7057 32.9259 17.2912 32.4439 17.0381L3.62963 1.97178C3.43923 1.87274 3.261 1.83972 3.10301 1.83972Z" fill="white"/>
</svg>
