<svg width="12" height="12" viewBox="0 0 12 12" fill="none" xmlns="http://www.w3.org/2000/svg">
<path d="M5.99988 6.64993C5.93488 6.64993 5.86988 6.63494 5.80988 6.59994L1.39488 4.04495C1.21488 3.93995 1.15487 3.70993 1.25987 3.52993C1.36487 3.34993 1.59488 3.28992 1.76988 3.39492L5.99487 5.83993L10.1949 3.40994C10.3749 3.30494 10.6049 3.36995 10.7049 3.54495C10.8099 3.72495 10.7449 3.95493 10.5699 4.05993L6.18488 6.59994C6.12988 6.62994 6.06488 6.64993 5.99988 6.64993Z" fill="#667085"/>
<path d="M5.99994 11.1799C5.79494 11.1799 5.62494 11.0099 5.62494 10.8049V6.26989C5.62494 6.06489 5.79494 5.89489 5.99994 5.89489C6.20494 5.89489 6.37494 6.06489 6.37494 6.26989V10.8049C6.37494 11.0099 6.20494 11.1799 5.99994 11.1799Z" fill="#667085"/>
<path d="M5.99993 11.375C5.55993 11.375 5.11993 11.28 4.77993 11.085L2.10993 9.60498C1.38493 9.20498 0.814929 8.23997 0.814929 7.40997V4.57995C0.814929 3.74995 1.38493 2.78998 2.10993 2.38498L4.77993 0.904967C5.45993 0.519967 6.52992 0.519967 7.21492 0.904967L9.88492 2.38498C10.6099 2.78498 11.1799 3.74995 11.1799 4.57995V7.40997C11.1799 7.45997 11.1799 7.49996 11.1699 7.54996C11.1449 7.67996 11.0499 7.78996 10.9249 7.82996C10.7999 7.87496 10.6599 7.84498 10.5549 7.75998C9.97992 7.25998 9.08993 7.23997 8.48493 7.72497C8.09993 8.02997 7.87493 8.49496 7.87493 8.98996C7.87493 9.28496 7.95493 9.57498 8.10993 9.82498C8.14993 9.89498 8.18993 9.94997 8.23493 10.005C8.30993 10.09 8.33994 10.205 8.31994 10.315C8.29994 10.425 8.22993 10.52 8.12993 10.575L7.21492 11.08C6.87492 11.28 6.43993 11.375 5.99993 11.375ZM5.99993 1.37497C5.68993 1.37497 5.37492 1.43997 5.14992 1.56497L2.47992 3.04498C1.99492 3.30998 1.57492 4.02995 1.57492 4.57995V7.40997C1.57492 7.95997 1.99992 8.67998 2.47992 8.94498L5.14992 10.425C5.60492 10.68 6.39992 10.68 6.85492 10.425L7.41492 10.115C7.22992 9.77996 7.12993 9.38996 7.12993 8.98996C7.12993 8.25996 7.45493 7.58498 8.01993 7.13498C8.69993 6.58998 9.67493 6.47496 10.4349 6.79996V4.56998C10.4349 4.01998 10.0099 3.29997 9.52993 3.03497L6.85993 1.55496C6.62493 1.43996 6.30993 1.37497 5.99993 1.37497Z" fill="#667085"/>
<path d="M9.50005 11.375C8.67005 11.375 7.89005 10.935 7.47005 10.22C7.24505 9.86001 7.12505 9.435 7.12505 9C7.12505 8.27 7.45005 7.59499 8.01505 7.14499C8.43505 6.80999 8.96505 6.625 9.50005 6.625C10.8101 6.625 11.8751 7.69 11.8751 9C11.8751 9.435 11.7551 9.86001 11.5301 10.225C11.41 10.435 11.245 10.625 11.055 10.785C10.64 11.165 10.0851 11.375 9.50005 11.375ZM9.50005 7.375C9.13005 7.375 8.78005 7.49999 8.48505 7.73499C8.10005 8.03999 7.87505 8.505 7.87505 9C7.87505 9.295 7.95505 9.585 8.11005 9.835C8.40505 10.335 8.92505 10.625 9.50005 10.625C9.89505 10.625 10.2751 10.48 10.5651 10.22C10.6951 10.11 10.805 9.98 10.885 9.84C11.045 9.585 11.1251 9.295 11.1251 9C11.1251 8.105 10.3951 7.375 9.50005 7.375Z" fill="#667085"/>
<path d="M10.035 9.89498C9.94001 9.89498 9.84501 9.85999 9.77001 9.78499L8.715 8.73C8.57 8.585 8.57 8.345 8.715 8.2C8.86 8.055 9.1 8.055 9.245 8.2L10.3 9.25499C10.445 9.39999 10.445 9.63999 10.3 9.78499C10.225 9.85999 10.13 9.89498 10.035 9.89498Z" fill="#667085"/>
<path d="M8.96499 9.90996C8.86999 9.90996 8.77499 9.87494 8.69999 9.79994C8.55499 9.65494 8.55499 9.41494 8.69999 9.26994L9.755 8.21495C9.9 8.06995 10.14 8.06995 10.285 8.21495C10.43 8.35995 10.43 8.59995 10.285 8.74495L9.22999 9.79994C9.15499 9.87494 9.05999 9.90996 8.96499 9.90996Z" fill="#667085"/>
</svg>
