<svg width="21" height="23" viewBox="0 0 21 23" fill="none" xmlns="http://www.w3.org/2000/svg">
<g filter="url(#filter0_d_0_53)">
<path d="M11.5559 1.59809L11.5559 1.598C11.8281 1.24221 12.1439 0.969564 12.4805 0.787314C12.8162 0.605558 13.1686 0.51561 13.5192 0.51561C13.8698 0.51561 14.2222 0.605558 14.5579 0.787314C14.8945 0.969564 15.2103 1.24221 15.4824 1.598L15.4826 1.59818C15.7549 1.95388 15.9759 2.38291 16.1281 2.86307C16.2803 3.34309 16.3595 3.86065 16.3595 4.38535C16.3595 4.91004 16.2803 5.4276 16.1281 5.90762L16.6196 6.06346L16.1281 5.90762C15.9759 6.38778 15.7549 6.81681 15.4826 7.17251L15.4825 7.1726L14.8359 8.0175L10.4998 13.6836L6.16375 8.0175L5.51719 7.1726C4.96514 6.45122 4.64049 5.44969 4.64049 4.38535C4.64049 3.321 4.96514 2.31948 5.51719 1.59809C6.06697 0.879669 6.77859 0.516036 7.48049 0.516036C8.1824 0.516036 8.89402 0.879669 9.4438 1.59809L10.0904 2.44299C10.1879 2.57047 10.3393 2.64525 10.4998 2.64525C10.6604 2.64525 10.8117 2.57047 10.9093 2.44299L11.5559 1.59809Z" stroke="white" stroke-linecap="round" stroke-linejoin="round" shape-rendering="crispEdges"/>
</g>
<defs>
<filter id="filter0_d_0_53" x="0" y="0" width="21" height="22.7818" filterUnits="userSpaceOnUse" color-interpolation-filters="sRGB">
<feFlood flood-opacity="0" result="BackgroundImageFix"/>
<feColorMatrix in="SourceAlpha" type="matrix" values="0 0 0 0 0 0 0 0 0 0 0 0 0 0 0 0 0 0 127 0" result="hardAlpha"/>
<feOffset dy="4"/>
<feGaussianBlur stdDeviation="2"/>
<feComposite in2="hardAlpha" operator="out"/>
<feColorMatrix type="matrix" values="0 0 0 0 0 0 0 0 0 0 0 0 0 0 0 0 0 0 0.25 0"/>
<feBlend mode="normal" in2="BackgroundImageFix" result="effect1_dropShadow_0_53"/>
<feBlend mode="normal" in="SourceGraphic" in2="effect1_dropShadow_0_53" result="shape"/>
</filter>
</defs>
</svg>
