<svg width="17" height="17" viewBox="0 0 17 17" fill="none" xmlns="http://www.w3.org/2000/svg">
<path d="M11.2447 10.0547C11.1774 9.98746 11.1349 9.89538 11.1349 9.78913L11.1349 5.86498L7.21077 5.86498C7.00535 5.86498 6.83535 5.69498 6.83535 5.48957C6.83535 5.28415 7.00535 5.11415 7.21077 5.11415L11.5103 5.11415C11.7157 5.11415 11.8857 5.28415 11.8857 5.48957L11.8857 9.78913C11.8857 9.99454 11.7157 10.1645 11.5103 10.1645C11.4076 10.1681 11.312 10.122 11.2447 10.0547Z" fill="#475467"/>
<path d="M5.22387 11.776C5.07866 11.6308 5.07866 11.3899 5.22387 11.2447L11.1845 5.28414C11.3297 5.13893 11.5705 5.13893 11.7157 5.28414C11.8609 5.42935 11.8609 5.67018 11.7157 5.81539L5.75512 11.776C5.60991 11.9212 5.36908 11.9212 5.22387 11.776Z" fill="#475467"/>
</svg>
