<svg width="12" height="12" viewBox="0 0 12 12" fill="none" xmlns="http://www.w3.org/2000/svg">
<path d="M6.50004 7.375H1.00004C0.795035 7.375 0.625035 7.205 0.625035 7V3.81C0.625035 3.65 0.725031 3.50998 0.870031 3.45498C1.02003 3.39998 1.18504 3.445 1.28504 3.565C1.59004 3.93 2.06504 4.13499 2.53504 4.11999C2.93504 4.10999 3.30503 3.96001 3.58503 3.69501C3.71503 3.58501 3.82003 3.455 3.90003 3.31C4.05503 3.045 4.13004 2.75499 4.12504 2.45999C4.11504 1.99999 3.91505 1.57999 3.57505 1.27499C3.45505 1.16999 3.41504 1.00498 3.47004 0.859983C3.52504 0.714983 3.66504 0.614988 3.82004 0.614988H7.50004C7.70504 0.614988 7.87504 0.784988 7.87504 0.989988V5.98999C7.87504 6.75999 7.26004 7.375 6.50004 7.375ZM1.37504 6.625H6.50004C6.84504 6.625 7.12504 6.345 7.12504 6V1.375H4.59504C4.77004 1.7 4.86504 2.065 4.87504 2.44501C4.88504 2.88 4.77503 3.31 4.55503 3.685C4.43503 3.9 4.27003 4.105 4.09003 4.255C3.69003 4.635 3.14003 4.86 2.55503 4.875C2.14003 4.89 1.73004 4.785 1.38004 4.595V6.625H1.37504Z" fill="#667085"/>
<path d="M9.50004 10.375H9.00004C8.79504 10.375 8.62504 10.205 8.62504 10C8.62504 9.655 8.34504 9.375 8.00004 9.375C7.65504 9.375 7.37504 9.655 7.37504 10C7.37504 10.205 7.20504 10.375 7.00004 10.375H5.00004C4.79504 10.375 4.62504 10.205 4.62504 10C4.62504 9.655 4.34504 9.375 4.00004 9.375C3.65504 9.375 3.37504 9.655 3.37504 10C3.37504 10.205 3.20504 10.375 3.00004 10.375H2.50004C1.46504 10.375 0.625035 9.535 0.625035 8.5V7C0.625035 6.795 0.795035 6.625 1.00004 6.625H6.50004C6.84504 6.625 7.12504 6.345 7.12504 6V2.5C7.12504 2.295 7.29504 2.125 7.50004 2.125H8.42005C8.91505 2.125 9.37003 2.39001 9.61503 2.82001L10.47 4.31501C10.535 4.43001 10.535 4.57501 10.47 4.69001C10.405 4.80501 10.28 4.875 10.145 4.875H9.50004C9.43004 4.875 9.37504 4.93 9.37504 5V6.5C9.37504 6.57 9.43004 6.625 9.50004 6.625H11C11.205 6.625 11.375 6.795 11.375 7V8.5C11.375 9.535 10.535 10.375 9.50004 10.375ZM9.32505 9.625H9.50004C10.12 9.625 10.625 9.12 10.625 8.5V7.375H9.50004C9.02004 7.375 8.62504 6.98 8.62504 6.5V5C8.62504 4.52 9.01504 4.125 9.50004 4.125L8.96503 3.19001C8.85503 2.99501 8.64505 2.875 8.42005 2.875H7.87504V6C7.87504 6.76 7.26004 7.375 6.50004 7.375H1.37504V8.5C1.37504 9.12 1.88004 9.625 2.50004 9.625H2.67502C2.84002 9.05 3.37004 8.625 4.00004 8.625C4.63004 8.625 5.16005 9.05 5.32505 9.625H6.68003C6.84503 9.05 7.37504 8.625 8.00504 8.625C8.63504 8.625 9.16005 9.05 9.32505 9.625Z" fill="#667085"/>
<path d="M3.99997 11.375C3.23997 11.375 2.62497 10.76 2.62497 10C2.62497 9.24 3.23997 8.625 3.99997 8.625C4.75997 8.625 5.37497 9.24 5.37497 10C5.37497 10.76 4.75997 11.375 3.99997 11.375ZM3.99997 9.375C3.65497 9.375 3.37497 9.655 3.37497 10C3.37497 10.345 3.65497 10.625 3.99997 10.625C4.34497 10.625 4.62497 10.345 4.62497 10C4.62497 9.655 4.34497 9.375 3.99997 9.375Z" fill="#667085"/>
<path d="M8.0001 11.375C7.2401 11.375 6.6251 10.76 6.6251 10C6.6251 9.24 7.2401 8.625 8.0001 8.625C8.7601 8.625 9.3751 9.24 9.3751 10C9.3751 10.76 8.7601 11.375 8.0001 11.375ZM8.0001 9.375C7.6551 9.375 7.3751 9.655 7.3751 10C7.3751 10.345 7.6551 10.625 8.0001 10.625C8.3451 10.625 8.6251 10.345 8.6251 10C8.6251 9.655 8.3451 9.375 8.0001 9.375Z" fill="#667085"/>
<path d="M11 7.375H9.50004C9.02004 7.375 8.62504 6.98 8.62504 6.5V5C8.62504 4.52 9.02004 4.125 9.50004 4.125H10.145C10.28 4.125 10.405 4.195 10.47 4.315L11.325 5.815C11.355 5.87 11.375 5.935 11.375 6V7C11.375 7.205 11.205 7.375 11 7.375ZM9.50004 4.875C9.43004 4.875 9.37504 4.93 9.37504 5V6.5C9.37504 6.57 9.43004 6.625 9.50004 6.625H10.625V6.10001L9.92502 4.875H9.50004Z" fill="#667085"/>
<path d="M2.49996 4.875C1.18996 4.875 0.124957 3.81 0.124957 2.5C0.124957 1.77 0.449971 1.09499 1.01497 0.644985C1.43497 0.309985 1.96496 0.124996 2.49996 0.124996C3.80996 0.124996 4.87496 1.19 4.87496 2.5C4.87496 3.18 4.57996 3.83 4.06496 4.28C3.62996 4.665 3.07496 4.875 2.49996 4.875ZM2.49996 0.874996C2.12996 0.874996 1.77994 0.999982 1.48494 1.23498C1.09994 1.53998 0.874957 2.005 0.874957 2.5C0.874957 3.395 1.60496 4.125 2.49996 4.125C2.88996 4.125 3.26997 3.98 3.57497 3.72C3.92497 3.41 4.12496 2.97 4.12496 2.5C4.12496 1.605 3.39496 0.874996 2.49996 0.874996Z" fill="#667085"/>
<path d="M1.99995 3.375C1.87495 3.375 1.74995 3.31001 1.67994 3.19501C1.57494 3.01501 1.62995 2.78499 1.80995 2.67999L2.25496 2.41501V1.875C2.25496 1.67 2.42496 1.5 2.62996 1.5C2.83496 1.5 3.00496 1.67 3.00496 1.875V2.625C3.00496 2.755 2.93496 2.88001 2.82496 2.94501L2.19996 3.32001C2.12996 3.36001 2.06495 3.375 1.99995 3.375Z" fill="#667085"/>
</svg>
