<svg width="10" height="11" viewBox="0 0 10 11" fill="none" xmlns="http://www.w3.org/2000/svg">
<path d="M7.03489 11H2.94186C1.07442 11 0 9.92559 0 8.05815V2.94186C0 1.07442 1.07442 0 2.94186 0H7.03489C8.90233 0 9.97675 1.07442 9.97675 2.94186V8.05815C9.97675 9.92559 8.90233 11 7.03489 11ZM2.94186 0.767443C1.47861 0.767443 0.767443 1.47861 0.767443 2.94186V8.05815C0.767443 9.5214 1.47861 10.2326 2.94186 10.2326H7.03489C8.49815 10.2326 9.20931 9.5214 9.20931 8.05815V2.94186C9.20931 1.47861 8.49815 0.767443 7.03489 0.767443H2.94186Z" fill="#667085"/>
<path d="M8.31398 4.09297H7.29073C6.51305 4.09297 5.88375 3.46367 5.88375 2.68599V1.66274C5.88375 1.45297 6.0577 1.27901 6.26747 1.27901C6.47724 1.27901 6.65119 1.45297 6.65119 1.66274V2.68599C6.65119 3.03902 6.9377 3.32553 7.29073 3.32553H8.31398C8.52375 3.32553 8.69771 3.49948 8.69771 3.70925C8.69771 3.91902 8.52375 4.09297 8.31398 4.09297Z" fill="#667085"/>
<path d="M4.98839 6.39534H2.94188C2.73211 6.39534 2.55816 6.22138 2.55816 6.01162C2.55816 5.80185 2.73211 5.62789 2.94188 5.62789H4.98839C5.19816 5.62789 5.37211 5.80185 5.37211 6.01162C5.37211 6.22138 5.19816 6.39534 4.98839 6.39534Z" fill="#667085"/>
<path d="M7.03491 8.44185H2.94188C2.73211 8.44185 2.55816 8.2679 2.55816 8.05813C2.55816 7.84836 2.73211 7.67441 2.94188 7.67441H7.03491C7.24467 7.67441 7.41863 7.84836 7.41863 8.05813C7.41863 8.2679 7.24467 8.44185 7.03491 8.44185Z" fill="#667085"/>
</svg>
