<svg width="16" height="12" viewBox="0 0 16 12" fill="none" xmlns="http://www.w3.org/2000/svg">
<g clip-path="url(#clip0_220_488)">
<path fill-rule="evenodd" clip-rule="evenodd" d="M0 2.99944C0 2.60169 0.210713 2.22023 0.585786 1.93898C0.960858 1.65773 1.46956 1.49972 2 1.49972H14C14.5304 1.49972 15.0391 1.65773 15.4142 1.93898C15.7893 2.22023 16 2.60169 16 2.99944V8.9983C16 9.39605 15.7893 9.77751 15.4142 10.0588C15.0391 10.34 14.5304 10.498 14 10.498H2C1.46956 10.498 0.960858 10.34 0.585786 10.0588C0.210713 9.77751 0 9.39605 0 8.9983V2.99944ZM2.5 3.7493C2.36739 3.7493 2.24021 3.7888 2.14644 3.85911C2.05268 3.92942 2 4.02479 2 4.12423V4.87408C2 4.97352 2.05268 5.06889 2.14644 5.1392C2.24021 5.20951 2.36739 5.24901 2.5 5.24901H4.49999C4.6326 5.24901 4.75978 5.20951 4.85355 5.1392C4.94731 5.06889 4.99999 4.97352 4.99999 4.87408V4.12423C4.99999 4.02479 4.94731 3.92942 4.85355 3.85911C4.75978 3.7888 4.6326 3.7493 4.49999 3.7493H2.5ZM2.5 5.99887C2.36739 5.99887 2.24021 6.03837 2.14644 6.10868C2.05268 6.179 2 6.27436 2 6.3738C2 6.47324 2.05268 6.5686 2.14644 6.63892C2.24021 6.70923 2.36739 6.74873 2.5 6.74873H7.49999C7.6326 6.74873 7.75977 6.70923 7.85354 6.63892C7.94731 6.5686 7.99999 6.47324 7.99999 6.3738C7.99999 6.27436 7.94731 6.179 7.85354 6.10868C7.75977 6.03837 7.6326 5.99887 7.49999 5.99887H2.5ZM2.5 7.49859C2.36739 7.49859 2.24021 7.53809 2.14644 7.6084C2.05268 7.67871 2 7.77408 2 7.87352C2 7.97295 2.05268 8.06832 2.14644 8.13863C2.24021 8.20894 2.36739 8.24844 2.5 8.24844H3.49999C3.6326 8.24844 3.75978 8.20894 3.85355 8.13863C3.94732 8.06832 3.99999 7.97295 3.99999 7.87352C3.99999 7.77408 3.94732 7.67871 3.85355 7.6084C3.75978 7.53809 3.6326 7.49859 3.49999 7.49859H2.5ZM5.49999 7.49859C5.36738 7.49859 5.24021 7.53809 5.14644 7.6084C5.05267 7.67871 4.99999 7.77408 4.99999 7.87352C4.99999 7.97295 5.05267 8.06832 5.14644 8.13863C5.24021 8.20894 5.36738 8.24844 5.49999 8.24844H6.49999C6.6326 8.24844 6.75977 8.20894 6.85354 8.13863C6.94731 8.06832 6.99999 7.97295 6.99999 7.87352C6.99999 7.77408 6.94731 7.67871 6.85354 7.6084C6.75977 7.53809 6.6326 7.49859 6.49999 7.49859H5.49999ZM8.49999 7.49859C8.36738 7.49859 8.2402 7.53809 8.14643 7.6084C8.05267 7.67871 7.99999 7.77408 7.99999 7.87352C7.99999 7.97295 8.05267 8.06832 8.14643 8.13863C8.2402 8.20894 8.36738 8.24844 8.49999 8.24844H9.49999C9.63259 8.24844 9.75977 8.20894 9.85354 8.13863C9.94731 8.06832 9.99998 7.97295 9.99998 7.87352C9.99998 7.77408 9.94731 7.67871 9.85354 7.6084C9.75977 7.53809 9.63259 7.49859 9.49999 7.49859H8.49999ZM11.5 7.49859C11.3674 7.49859 11.2402 7.53809 11.1464 7.6084C11.0527 7.67871 11 7.77408 11 7.87352C11 7.97295 11.0527 8.06832 11.1464 8.13863C11.2402 8.20894 11.3674 8.24844 11.5 8.24844H12.5C12.6326 8.24844 12.7598 8.20894 12.8535 8.13863C12.9473 8.06832 13 7.97295 13 7.87352C13 7.77408 12.9473 7.67871 12.8535 7.6084C12.7598 7.53809 12.6326 7.49859 12.5 7.49859H11.5Z" fill="white"/>
</g>
<defs>
<clipPath id="clip0_220_488">
<rect width="15.8984" height="11.9216" fill="white" transform="scale(1.00639)"/>
</clipPath>
</defs>
</svg>
