<svg width="18" height="38" viewBox="0 0 18 38" fill="none" xmlns="http://www.w3.org/2000/svg">
<g clip-path="url(#clip0_240_249)">
<path fill-rule="evenodd" clip-rule="evenodd" d="M0 9.27598C0 8.04591 0.237053 6.86622 0.659009 5.99643C1.08097 5.12663 1.65326 4.63799 2.25 4.63799H15.75C16.3467 4.63799 16.919 5.12663 17.341 5.99643C17.7629 6.86622 18 8.04591 18 9.27598V27.828C18 29.058 17.7629 30.2377 17.341 31.1075C16.919 31.9773 16.3467 32.466 15.75 32.466H2.25C1.65326 32.466 1.08097 31.9773 0.659009 31.1075C0.237053 30.2377 0 29.058 0 27.828V9.27598ZM2.8125 11.595C2.66331 11.595 2.52024 11.7171 2.41475 11.9346C2.30926 12.152 2.25 12.447 2.25 12.7545V15.0735C2.25 15.381 2.30926 15.6759 2.41475 15.8934C2.52024 16.1108 2.66331 16.233 2.8125 16.233H5.0625C5.21168 16.233 5.35475 16.1108 5.46024 15.8934C5.56573 15.6759 5.625 15.381 5.625 15.0735V12.7545C5.625 12.447 5.56573 12.152 5.46024 11.9346C5.35475 11.7171 5.21168 11.595 5.0625 11.595H2.8125ZM2.8125 18.552C2.66331 18.552 2.52024 18.6741 2.41475 18.8916C2.30926 19.109 2.25 19.404 2.25 19.7115C2.25 20.019 2.30926 20.3139 2.41475 20.5314C2.52024 20.7488 2.66331 20.871 2.8125 20.871H8.43749C8.58668 20.871 8.72975 20.7488 8.83524 20.5314C8.94073 20.3139 8.99999 20.019 8.99999 19.7115C8.99999 19.404 8.94073 19.109 8.83524 18.8916C8.72975 18.6741 8.58668 18.552 8.43749 18.552H2.8125ZM2.8125 23.19C2.66331 23.19 2.52024 23.3121 2.41475 23.5296C2.30926 23.747 2.25 24.042 2.25 24.3495C2.25 24.657 2.30926 24.9519 2.41475 25.1694C2.52024 25.3868 2.66331 25.509 2.8125 25.509H3.9375C4.08668 25.509 4.22975 25.3868 4.33524 25.1694C4.44073 24.9519 4.5 24.657 4.5 24.3495C4.5 24.042 4.44073 23.747 4.33524 23.5296C4.22975 23.3121 4.08668 23.19 3.9375 23.19H2.8125ZM6.18749 23.19C6.03831 23.19 5.89524 23.3121 5.78975 23.5296C5.68426 23.747 5.625 24.042 5.625 24.3495C5.625 24.657 5.68426 24.9519 5.78975 25.1694C5.89524 25.3868 6.03831 25.509 6.18749 25.509H7.31249C7.46168 25.509 7.60475 25.3868 7.71024 25.1694C7.81573 24.9519 7.87499 24.657 7.87499 24.3495C7.87499 24.042 7.81573 23.747 7.71024 23.5296C7.60475 23.3121 7.46168 23.19 7.31249 23.19H6.18749ZM9.56249 23.19C9.41331 23.19 9.27023 23.3121 9.16474 23.5296C9.05925 23.747 8.99999 24.042 8.99999 24.3495C8.99999 24.657 9.05925 24.9519 9.16474 25.1694C9.27023 25.3868 9.41331 25.509 9.56249 25.509H10.6875C10.8367 25.509 10.9797 25.3868 11.0852 25.1694C11.1907 24.9519 11.25 24.657 11.25 24.3495C11.25 24.042 11.1907 23.747 11.0852 23.5296C10.9797 23.3121 10.8367 23.19 10.6875 23.19H9.56249ZM12.9375 23.19C12.7883 23.19 12.6452 23.3121 12.5397 23.5296C12.4343 23.747 12.375 24.042 12.375 24.3495C12.375 24.657 12.4343 24.9519 12.5397 25.1694C12.6452 25.3868 12.7883 25.509 12.9375 25.509H14.0625C14.2117 25.509 14.3547 25.3868 14.4602 25.1694C14.5657 24.9519 14.625 24.657 14.625 24.3495C14.625 24.042 14.5657 23.747 14.4602 23.5296C14.3547 23.3121 14.2117 23.19 14.0625 23.19H12.9375Z" fill="white"/>
</g>
<defs>
<clipPath id="clip0_240_249">
<rect width="17.9877" height="37.0787" fill="white" transform="scale(1.00068)"/>
</clipPath>
</defs>
</svg>
