<svg width="17" height="16" viewBox="0 0 17 16" fill="none" xmlns="http://www.w3.org/2000/svg">
<path d="M14.8393 2.17639C14.473 1.80498 14.0381 1.51035 13.5595 1.30933C13.0808 1.10832 12.5678 1.00486 12.0496 1.00486C11.5315 1.00486 11.0185 1.10832 10.5398 1.30933C10.0612 1.51035 9.62626 1.80498 9.25998 2.17639L8.49982 2.94683L7.73966 2.17639C6.9998 1.42652 5.99633 1.00524 4.95001 1.00524C3.90369 1.00524 2.90023 1.42652 2.16037 2.17639C1.42051 2.92626 1.00486 3.9433 1.00486 5.00378C1.00486 6.06426 1.42051 7.0813 2.16037 7.83117L2.92053 8.60161L8.49982 14.2564L14.0791 8.60161L14.8393 7.83117C15.2057 7.45993 15.4964 7.01916 15.6948 6.53403C15.8931 6.04889 15.9952 5.52891 15.9952 5.00378C15.9952 4.47865 15.8931 3.95866 15.6948 3.47353C15.4964 2.9884 15.2057 2.54762 14.8393 2.17639V2.17639Z" stroke="white" stroke-width="2" stroke-linecap="round" stroke-linejoin="round"/>
</svg>
