<svg width="12" height="12" viewBox="0 0 12 12" fill="none" xmlns="http://www.w3.org/2000/svg">
<path d="M6.00004 11.375C3.03504 11.375 0.625035 8.96499 0.625035 5.99999C0.625035 3.03499 3.03504 0.624992 6.00004 0.624992C8.96504 0.624992 11.375 3.03499 11.375 5.99999C11.375 8.96499 8.96504 11.375 6.00004 11.375ZM6.00004 1.37499C3.45004 1.37499 1.37504 3.44999 1.37504 5.99999C1.37504 8.54999 3.45004 10.625 6.00004 10.625C8.55004 10.625 10.625 8.54999 10.625 5.99999C10.625 3.44999 8.55004 1.37499 6.00004 1.37499Z" fill="#667085"/>
<path d="M5.99994 6.87499C5.79494 6.87499 5.62494 6.70499 5.62494 6.49999V3.99999C5.62494 3.79499 5.79494 3.62499 5.99994 3.62499C6.20494 3.62499 6.37494 3.79499 6.37494 3.99999V6.49999C6.37494 6.70499 6.20494 6.87499 5.99994 6.87499Z" fill="#667085"/>
<path d="M6.00011 8.5C5.93511 8.5 5.87011 8.485 5.81011 8.46C5.75011 8.435 5.69511 8.4 5.64511 8.355C5.60011 8.305 5.56511 8.255 5.54011 8.19C5.51511 8.13 5.50011 8.065 5.50011 8C5.50011 7.935 5.51511 7.87 5.54011 7.81C5.56511 7.75 5.60011 7.695 5.64511 7.645C5.69511 7.6 5.75011 7.565 5.81011 7.54C5.93011 7.49 6.07011 7.49 6.19011 7.54C6.25011 7.565 6.30511 7.6 6.35511 7.645C6.40011 7.695 6.43511 7.75 6.46011 7.81C6.48511 7.87 6.50011 7.935 6.50011 8C6.50011 8.065 6.48511 8.13 6.46011 8.19C6.43511 8.255 6.40011 8.305 6.35511 8.355C6.30511 8.4 6.25011 8.435 6.19011 8.46C6.13011 8.485 6.06511 8.5 6.00011 8.5Z" fill="#667085"/>
</svg>
