<svg width="20" height="18" viewBox="0 0 20 18" fill="none" xmlns="http://www.w3.org/2000/svg">
<path d="M18 0H2C0.89 0 0.00999999 0.89 0.00999999 2L0 14C0 15.11 0.89 16 2 16H6C6.55 16 7 15.55 7 15C7 14.45 6.55 14 6 14H2V8H20V2C20 0.9 19.1 0 18 0ZM18 4H2V2H18V4ZM12.93 15.17L10.81 13.05C10.42 12.66 9.79 12.66 9.4 13.05C9.01 13.44 9.01 14.07 9.4 14.46L12.23 17.29C12.62 17.68 13.25 17.68 13.64 17.29L19.3 11.63C19.69 11.24 19.69 10.61 19.3 10.22C18.91 9.83 18.28 9.83 17.89 10.22L12.93 15.17Z" fill="#2BB57B"/>
</svg>
