<svg width="17" height="6" viewBox="0 0 17 6" fill="none" xmlns="http://www.w3.org/2000/svg">
<path fill-rule="evenodd" clip-rule="evenodd" d="M4.25014 5.54153H2.77891L1.67567 1.20881C1.6233 1.0095 1.51212 0.833303 1.34857 0.750259C0.94041 0.541566 0.490649 0.375479 0 0.291713V0.124903H2.37003C2.69713 0.124903 2.94246 0.375479 2.98334 0.666493L3.55577 3.79183L5.02628 0.124903H6.45662L4.25014 5.54153ZM7.27423 5.54153H5.88477L7.0289 0.124903H8.41836L7.27423 5.54153ZM10.216 1.62549C10.2569 1.33376 10.5022 1.16695 10.7884 1.16695C11.2382 1.12506 11.7281 1.20883 12.137 1.4168L12.3823 0.250576C11.9734 0.0837659 11.5237 0 11.1155 0C9.76694 0 8.78564 0.750283 8.78564 1.79158C8.78564 2.58375 9.48072 2.99969 9.97137 3.25026C10.5022 3.50012 10.7066 3.66693 10.6657 3.91678C10.6657 4.29156 10.2569 4.45837 9.84871 4.45837C9.35806 4.45837 8.86741 4.33344 8.41837 4.12475L8.17305 5.2917C8.66369 5.49967 9.19451 5.58343 9.68516 5.58343C11.1973 5.6246 12.137 4.87503 12.137 3.74997C12.137 2.33317 10.216 2.25013 10.216 1.62549ZM17 5.54153L15.8967 0.124903H14.7117C14.4664 0.124903 14.2211 0.291713 14.1393 0.541566L12.0963 5.54153H13.5267L13.8122 4.75008H15.5696L15.7332 5.54153H17ZM14.9159 1.58363L15.324 3.62506H14.1799L14.9159 1.58363Z" fill="#172B85"/>
</svg>
