<svg width="16" height="12" viewBox="0 0 16 12" fill="none" xmlns="http://www.w3.org/2000/svg">
<g clip-path="url(#clip0_220_488)">
<path fill-rule="evenodd" clip-rule="evenodd" d="M0 2.99942C0 2.60167 0.210713 2.22022 0.585786 1.93896C0.960858 1.65771 1.46956 1.49971 2 1.49971H14C14.5304 1.49971 15.0391 1.65771 15.4142 1.93896C15.7893 2.22022 16 2.60167 16 2.99942V8.99829C16 9.39604 15.7893 9.77749 15.4142 10.0587C15.0391 10.34 14.5304 10.498 14 10.498H2C1.46956 10.498 0.960858 10.34 0.585786 10.0587C0.210713 9.77749 0 9.39604 0 8.99829V2.99942ZM2.5 3.74928C2.36739 3.74928 2.24021 3.78878 2.14644 3.8591C2.05268 3.92941 2 4.02477 2 4.12421V4.87407C2 4.97351 2.05268 5.06887 2.14644 5.13918C2.24021 5.2095 2.36739 5.249 2.5 5.249H4.49999C4.6326 5.249 4.75978 5.2095 4.85355 5.13918C4.94731 5.06887 4.99999 4.97351 4.99999 4.87407V4.12421C4.99999 4.02477 4.94731 3.92941 4.85355 3.8591C4.75978 3.78878 4.6326 3.74928 4.49999 3.74928H2.5ZM2.5 5.99886C2.36739 5.99886 2.24021 6.03836 2.14644 6.10867C2.05268 6.17898 2 6.27435 2 6.37378C2 6.47322 2.05268 6.56859 2.14644 6.6389C2.24021 6.70921 2.36739 6.74871 2.5 6.74871H7.49999C7.6326 6.74871 7.75977 6.70921 7.85354 6.6389C7.94731 6.56859 7.99999 6.47322 7.99999 6.37378C7.99999 6.27435 7.94731 6.17898 7.85354 6.10867C7.75977 6.03836 7.6326 5.99886 7.49999 5.99886H2.5ZM2.5 7.49857C2.36739 7.49857 2.24021 7.53807 2.14644 7.60839C2.05268 7.6787 2 7.77406 2 7.8735C2 7.97294 2.05268 8.0683 2.14644 8.13862C2.24021 8.20893 2.36739 8.24843 2.5 8.24843H3.49999C3.6326 8.24843 3.75978 8.20893 3.85355 8.13862C3.94732 8.0683 3.99999 7.97294 3.99999 7.8735C3.99999 7.77406 3.94732 7.6787 3.85355 7.60839C3.75978 7.53807 3.6326 7.49857 3.49999 7.49857H2.5ZM5.49999 7.49857C5.36738 7.49857 5.24021 7.53807 5.14644 7.60839C5.05267 7.6787 4.99999 7.77406 4.99999 7.8735C4.99999 7.97294 5.05267 8.0683 5.14644 8.13862C5.24021 8.20893 5.36738 8.24843 5.49999 8.24843H6.49999C6.6326 8.24843 6.75977 8.20893 6.85354 8.13862C6.94731 8.0683 6.99999 7.97294 6.99999 7.8735C6.99999 7.77406 6.94731 7.6787 6.85354 7.60839C6.75977 7.53807 6.6326 7.49857 6.49999 7.49857H5.49999ZM8.49999 7.49857C8.36738 7.49857 8.2402 7.53807 8.14643 7.60839C8.05267 7.6787 7.99999 7.77406 7.99999 7.8735C7.99999 7.97294 8.05267 8.0683 8.14643 8.13862C8.2402 8.20893 8.36738 8.24843 8.49999 8.24843H9.49999C9.63259 8.24843 9.75977 8.20893 9.85354 8.13862C9.94731 8.0683 9.99998 7.97294 9.99998 7.8735C9.99998 7.77406 9.94731 7.6787 9.85354 7.60839C9.75977 7.53807 9.63259 7.49857 9.49999 7.49857H8.49999ZM11.5 7.49857C11.3674 7.49857 11.2402 7.53807 11.1464 7.60839C11.0527 7.6787 11 7.77406 11 7.8735C11 7.97294 11.0527 8.0683 11.1464 8.13862C11.2402 8.20893 11.3674 8.24843 11.5 8.24843H12.5C12.6326 8.24843 12.7598 8.20893 12.8535 8.13862C12.9473 8.0683 13 7.97294 13 7.8735C13 7.77406 12.9473 7.6787 12.8535 7.60839C12.7598 7.53807 12.6326 7.49857 12.5 7.49857H11.5Z" fill="white"/>
</g>
<defs>
<clipPath id="clip0_220_488">
<rect width="15.8984" height="11.9216" fill="white" transform="scale(1.00639)"/>
</clipPath>
</defs>
</svg>
